# xmcd
# Copyright (C) 1995-1998 Ti Kan
#
# Track frame offsets:
#       150
#       14006
#       25572
#       40430
#       53321
#       64459
#       73708
#       93916
#       108334
#       119240
#       130082
#       145518
#       162198
#
# Disc length: 2341 seconds
#
# Revision: 0
# Processed by: cddbd v1.5.2PL0 Copyright (c) Steve Scherf et al.
# Submitted via: CD-Transfer v1.0
#
DISCID=b009230d
DTITLE=Sepp Messner Windschnur - 66
DYEAR=12
DGENRE=
TTITLE0=Der Franz
TTITLE1=Cadillac
TTITLE2=Der Bock Und Die Goas
TTITLE3=Bum Bum Bum Bum
TTITLE4=Spritzig Bis Zum Tod
TTITLE5=Die Susi Und Die Musi
TTITLE6=Vacanze Al Mare
TTITLE7=Die Pensionisten
TTITLE8=Geld
TTITLE9=Bled Oder Gscheid
TTITLE10=Mei Tante Marie
TTITLE11=Die Hochzeitgschicht
TTITLE12=Der Diktator
EXTD=
EXTT0=
EXTT1=
EXTT2=
EXTT3=
EXTT4=
EXTT5=
EXTT6=
EXTT7=
EXTT8=
EXTT9=
EXTT10=
EXTT11=
EXTT12=
PLAYORDER=
